<svg width="24" height="24" viewBox="0 0 24 24" fill="none" xmlns="http://www.w3.org/2000/svg">
<path fill-rule="evenodd" clip-rule="evenodd" d="M5.18115 12.8143C7.91302 6.89523 16.0873 6.89523 18.8192 12.8143C18.9928 13.1904 19.4384 13.3546 19.8145 13.181C20.1906 13.0074 20.3547 12.5618 20.1812 12.1857C16.913 5.10476 7.08734 5.10476 3.81921 12.1857C3.64563 12.5618 3.8098 13.0074 4.18589 13.181C4.56198 13.3546 5.00757 13.1904 5.18115 12.8143ZM13.2502 14C13.2502 13.3096 12.6905 12.75 12.0002 12.75C11.3098 12.75 10.7502 13.3096 10.7502 14C10.7502 14.6904 11.3098 15.25 12.0002 15.25C12.6905 15.25 13.2502 14.6904 13.2502 14ZM12.0002 11.25C13.519 11.25 14.7502 12.4812 14.7502 14C14.7502 15.5188 13.519 16.75 12.0002 16.75C10.4814 16.75 9.25018 15.5188 9.25018 14C9.25018 12.4812 10.4814 11.25 12.0002 11.25Z" fill="black"/>
</svg>
