<svg width="24" height="24" viewBox="0 0 24 24" fill="none" xmlns="http://www.w3.org/2000/svg">
<path fill-rule="evenodd" clip-rule="evenodd" d="M1.25 2C1.25 1.58579 1.58579 1.25 2 1.25C3.96839 1.25 5.05306 2.34155 5.51124 3.25H22C22.2224 3.25 22.4333 3.3487 22.5758 3.51944C22.7183 3.69018 22.7777 3.91536 22.7379 4.13416L20.7402 15.1213C20.7226 15.2295 20.6819 15.33 20.6232 15.4175C20.5904 15.4664 20.552 15.5111 20.5091 15.5508C20.3754 15.6744 20.1965 15.75 20 15.75H7H5.23077C4.43492 15.75 3.93322 15.9259 3.64869 16.1411C3.39118 16.3359 3.25 16.6065 3.25 17C3.25 17.3935 3.39118 17.6641 3.64869 17.8589C3.93322 18.0741 4.43492 18.25 5.23077 18.25H9.5H19.5C20.7426 18.25 21.75 19.2574 21.75 20.5C21.75 21.7426 20.7426 22.75 19.5 22.75C18.2574 22.75 17.25 21.7426 17.25 20.5C17.25 20.237 17.2951 19.9846 17.378 19.75H11.622C11.7049 19.9846 11.75 20.237 11.75 20.5C11.75 21.7426 10.7426 22.75 9.5 22.75C8.25736 22.75 7.25 21.7426 7.25 20.5C7.25 20.237 7.29512 19.9846 7.37803 19.75H5.23077C4.24231 19.75 3.37863 19.5353 2.74385 19.0552C2.08205 18.5547 1.75 17.8253 1.75 17C1.75 16.1747 2.08205 15.4453 2.74385 14.9448C3.37863 14.4647 4.24231 14.25 5.23077 14.25H6.10134L4.26716 4.16199C4.15331 3.74877 3.56536 2.75 2 2.75C1.58579 2.75 1.25 2.41421 1.25 2ZM7.62593 14.25H19.3741L21.1013 4.75H5.89866L7.62593 14.25Z" fill="black"/>
</svg>
